<mxfile host="app.diagrams.net" modified="2024-04-22T13:01:16.381Z" agent="Mozilla/5.0 (Windows NT 10.0; Win64; x64) AppleWebKit/537.36 (KHTML, like Gecko) Chrome/123.0.0.0 Safari/537.36" etag="KxDYJuCGdpcuBmYZBwX0" version="24.0.1" type="device">
  <diagram name="Page-1" id="2YBvvXClWsGukQMizWep">
    <mxGraphModel dx="1050" dy="565" grid="1" gridSize="10" guides="1" tooltips="1" connect="1" arrows="1" fold="1" page="1" pageScale="1" pageWidth="850" pageHeight="1100" math="0" shadow="0">
      <root>
        <mxCell id="0" />
        <mxCell id="1" parent="0" />
        <mxCell id="hLtvygojtWEa5uv9mund-19" value="" style="shape=umlLifeline;perimeter=lifelinePerimeter;whiteSpace=wrap;html=1;container=1;dropTarget=0;collapsible=0;recursiveResize=0;outlineConnect=0;portConstraint=eastwest;newEdgeStyle={&quot;curved&quot;:0,&quot;rounded&quot;:0};participant=umlActor;" vertex="1" parent="1">
          <mxGeometry x="120" y="110" width="60" height="510" as="geometry" />
        </mxCell>
        <mxCell id="hLtvygojtWEa5uv9mund-72" value="" style="html=1;points=[[0,0,0,0,5],[0,1,0,0,-5],[1,0,0,0,5],[1,1,0,0,-5]];perimeter=orthogonalPerimeter;outlineConnect=0;targetShapes=umlLifeline;portConstraint=eastwest;newEdgeStyle={&quot;curved&quot;:0,&quot;rounded&quot;:0};" vertex="1" parent="hLtvygojtWEa5uv9mund-19">
          <mxGeometry x="25" y="60" width="10" height="60" as="geometry" />
        </mxCell>
        <mxCell id="hLtvygojtWEa5uv9mund-71" value="" style="html=1;points=[[0,0,0,0,5],[0,1,0,0,-5],[1,0,0,0,5],[1,1,0,0,-5]];perimeter=orthogonalPerimeter;outlineConnect=0;targetShapes=umlLifeline;portConstraint=eastwest;newEdgeStyle={&quot;curved&quot;:0,&quot;rounded&quot;:0};" vertex="1" parent="hLtvygojtWEa5uv9mund-19">
          <mxGeometry x="25" y="160" width="10" height="80" as="geometry" />
        </mxCell>
        <mxCell id="hLtvygojtWEa5uv9mund-70" value="" style="html=1;points=[[0,0,0,0,5],[0,1,0,0,-5],[1,0,0,0,5],[1,1,0,0,-5]];perimeter=orthogonalPerimeter;outlineConnect=0;targetShapes=umlLifeline;portConstraint=eastwest;newEdgeStyle={&quot;curved&quot;:0,&quot;rounded&quot;:0};" vertex="1" parent="hLtvygojtWEa5uv9mund-19">
          <mxGeometry x="25" y="270" width="10" height="80" as="geometry" />
        </mxCell>
        <mxCell id="hLtvygojtWEa5uv9mund-69" value="" style="html=1;points=[[0,0,0,0,5],[0,1,0,0,-5],[1,0,0,0,5],[1,1,0,0,-5]];perimeter=orthogonalPerimeter;outlineConnect=0;targetShapes=umlLifeline;portConstraint=eastwest;newEdgeStyle={&quot;curved&quot;:0,&quot;rounded&quot;:0};" vertex="1" parent="hLtvygojtWEa5uv9mund-19">
          <mxGeometry x="25" y="380" width="10" height="80" as="geometry" />
        </mxCell>
        <mxCell id="hLtvygojtWEa5uv9mund-33" value="customer" style="text;html=1;align=center;verticalAlign=middle;resizable=0;points=[];autosize=1;strokeColor=none;fillColor=none;" vertex="1" parent="1">
          <mxGeometry x="115" y="140" width="70" height="30" as="geometry" />
        </mxCell>
        <mxCell id="hLtvygojtWEa5uv9mund-46" value="&lt;div&gt;supershop website&lt;/div&gt;" style="shape=umlLifeline;perimeter=lifelinePerimeter;whiteSpace=wrap;html=1;container=1;dropTarget=0;collapsible=0;recursiveResize=0;outlineConnect=0;portConstraint=eastwest;newEdgeStyle={&quot;curved&quot;:0,&quot;rounded&quot;:0};" vertex="1" parent="1">
          <mxGeometry x="280" y="110" width="100" height="510" as="geometry" />
        </mxCell>
        <mxCell id="hLtvygojtWEa5uv9mund-73" value="" style="html=1;points=[[0,0,0,0,5],[0,1,0,0,-5],[1,0,0,0,5],[1,1,0,0,-5]];perimeter=orthogonalPerimeter;outlineConnect=0;targetShapes=umlLifeline;portConstraint=eastwest;newEdgeStyle={&quot;curved&quot;:0,&quot;rounded&quot;:0};" vertex="1" parent="hLtvygojtWEa5uv9mund-46">
          <mxGeometry x="45" y="60" width="10" height="80" as="geometry" />
        </mxCell>
        <mxCell id="hLtvygojtWEa5uv9mund-75" value="" style="html=1;points=[[0,0,0,0,5],[0,1,0,0,-5],[1,0,0,0,5],[1,1,0,0,-5]];perimeter=orthogonalPerimeter;outlineConnect=0;targetShapes=umlLifeline;portConstraint=eastwest;newEdgeStyle={&quot;curved&quot;:0,&quot;rounded&quot;:0};" vertex="1" parent="hLtvygojtWEa5uv9mund-46">
          <mxGeometry x="45" y="150" width="10" height="200" as="geometry" />
        </mxCell>
        <mxCell id="hLtvygojtWEa5uv9mund-85" value="" style="html=1;points=[[0,0,0,0,5],[0,1,0,0,-5],[1,0,0,0,5],[1,1,0,0,-5]];perimeter=orthogonalPerimeter;outlineConnect=0;targetShapes=umlLifeline;portConstraint=eastwest;newEdgeStyle={&quot;curved&quot;:0,&quot;rounded&quot;:0};" vertex="1" parent="hLtvygojtWEa5uv9mund-46">
          <mxGeometry x="45" y="380" width="10" height="80" as="geometry" />
        </mxCell>
        <mxCell id="hLtvygojtWEa5uv9mund-47" value="delivary" style="shape=umlLifeline;perimeter=lifelinePerimeter;whiteSpace=wrap;html=1;container=1;dropTarget=0;collapsible=0;recursiveResize=0;outlineConnect=0;portConstraint=eastwest;newEdgeStyle={&quot;curved&quot;:0,&quot;rounded&quot;:0};" vertex="1" parent="1">
          <mxGeometry x="690" y="110" width="100" height="510" as="geometry" />
        </mxCell>
        <mxCell id="hLtvygojtWEa5uv9mund-84" value="" style="html=1;points=[[0,0,0,0,5],[0,1,0,0,-5],[1,0,0,0,5],[1,1,0,0,-5]];perimeter=orthogonalPerimeter;outlineConnect=0;targetShapes=umlLifeline;portConstraint=eastwest;newEdgeStyle={&quot;curved&quot;:0,&quot;rounded&quot;:0};" vertex="1" parent="hLtvygojtWEa5uv9mund-47">
          <mxGeometry x="45" y="380" width="10" height="80" as="geometry" />
        </mxCell>
        <mxCell id="hLtvygojtWEa5uv9mund-48" value="payment" style="shape=umlLifeline;perimeter=lifelinePerimeter;whiteSpace=wrap;html=1;container=1;dropTarget=0;collapsible=0;recursiveResize=0;outlineConnect=0;portConstraint=eastwest;newEdgeStyle={&quot;curved&quot;:0,&quot;rounded&quot;:0};" vertex="1" parent="1">
          <mxGeometry x="520" y="110" width="100" height="510" as="geometry" />
        </mxCell>
        <mxCell id="hLtvygojtWEa5uv9mund-79" value="" style="html=1;points=[[0,0,0,0,5],[0,1,0,0,-5],[1,0,0,0,5],[1,1,0,0,-5]];perimeter=orthogonalPerimeter;outlineConnect=0;targetShapes=umlLifeline;portConstraint=eastwest;newEdgeStyle={&quot;curved&quot;:0,&quot;rounded&quot;:0};" vertex="1" parent="hLtvygojtWEa5uv9mund-48">
          <mxGeometry x="45" y="200" width="10" height="130" as="geometry" />
        </mxCell>
        <mxCell id="hLtvygojtWEa5uv9mund-74" value="browsProduct" style="html=1;verticalAlign=bottom;endArrow=block;curved=0;rounded=0;" edge="1" parent="1" target="hLtvygojtWEa5uv9mund-46">
          <mxGeometry width="80" relative="1" as="geometry">
            <mxPoint x="160" y="190" as="sourcePoint" />
            <mxPoint x="230" y="190" as="targetPoint" />
          </mxGeometry>
        </mxCell>
        <mxCell id="hLtvygojtWEa5uv9mund-77" value="add item to cart" style="html=1;verticalAlign=bottom;endArrow=block;curved=0;rounded=0;" edge="1" parent="1" target="hLtvygojtWEa5uv9mund-46">
          <mxGeometry width="80" relative="1" as="geometry">
            <mxPoint x="160" y="290" as="sourcePoint" />
            <mxPoint x="240" y="290" as="targetPoint" />
          </mxGeometry>
        </mxCell>
        <mxCell id="hLtvygojtWEa5uv9mund-78" value="begin checkout" style="html=1;verticalAlign=bottom;endArrow=block;curved=0;rounded=0;" edge="1" parent="1" target="hLtvygojtWEa5uv9mund-46">
          <mxGeometry width="80" relative="1" as="geometry">
            <mxPoint x="160" y="329.5" as="sourcePoint" />
            <mxPoint x="240" y="329.5" as="targetPoint" />
          </mxGeometry>
        </mxCell>
        <mxCell id="hLtvygojtWEa5uv9mund-80" value="send payment info" style="html=1;verticalAlign=bottom;endArrow=block;curved=0;rounded=0;" edge="1" parent="1" target="hLtvygojtWEa5uv9mund-48">
          <mxGeometry width="80" relative="1" as="geometry">
            <mxPoint x="340" y="360" as="sourcePoint" />
            <mxPoint x="420" y="360" as="targetPoint" />
          </mxGeometry>
        </mxCell>
        <mxCell id="hLtvygojtWEa5uv9mund-81" value="process payment info" style="html=1;verticalAlign=bottom;endArrow=block;curved=0;rounded=0;" edge="1" parent="1" target="hLtvygojtWEa5uv9mund-48">
          <mxGeometry width="80" relative="1" as="geometry">
            <mxPoint x="340" y="410" as="sourcePoint" />
            <mxPoint x="420" y="410" as="targetPoint" />
          </mxGeometry>
        </mxCell>
        <mxCell id="hLtvygojtWEa5uv9mund-82" value="paymentprocced" style="html=1;verticalAlign=bottom;endArrow=open;dashed=1;endSize=8;curved=0;rounded=0;" edge="1" parent="1">
          <mxGeometry relative="1" as="geometry">
            <mxPoint x="570" y="440" as="sourcePoint" />
            <mxPoint x="329.5" y="440" as="targetPoint" />
          </mxGeometry>
        </mxCell>
        <mxCell id="hLtvygojtWEa5uv9mund-83" value="send confirmation message" style="html=1;verticalAlign=bottom;endArrow=open;dashed=1;endSize=8;curved=0;rounded=0;entryX=1;entryY=1;entryDx=0;entryDy=-5;entryPerimeter=0;" edge="1" parent="1" target="hLtvygojtWEa5uv9mund-70">
          <mxGeometry relative="1" as="geometry">
            <mxPoint x="330" y="450" as="sourcePoint" />
            <mxPoint x="160" y="450" as="targetPoint" />
          </mxGeometry>
        </mxCell>
        <mxCell id="hLtvygojtWEa5uv9mund-86" value="enterdelivaryinfo" style="html=1;verticalAlign=bottom;endArrow=block;curved=0;rounded=0;" edge="1" parent="1" target="hLtvygojtWEa5uv9mund-46">
          <mxGeometry width="80" relative="1" as="geometry">
            <mxPoint x="150" y="510" as="sourcePoint" />
            <mxPoint x="230" y="510" as="targetPoint" />
          </mxGeometry>
        </mxCell>
        <mxCell id="hLtvygojtWEa5uv9mund-87" value="providedelivaryinfo" style="html=1;verticalAlign=bottom;endArrow=block;curved=0;rounded=0;" edge="1" parent="1" target="hLtvygojtWEa5uv9mund-47">
          <mxGeometry width="80" relative="1" as="geometry">
            <mxPoint x="340" y="530" as="sourcePoint" />
            <mxPoint x="420" y="530" as="targetPoint" />
          </mxGeometry>
        </mxCell>
        <mxCell id="hLtvygojtWEa5uv9mund-88" value="delivary product to" style="html=1;verticalAlign=bottom;endArrow=open;dashed=1;endSize=8;curved=0;rounded=0;" edge="1" parent="1" target="hLtvygojtWEa5uv9mund-19">
          <mxGeometry relative="1" as="geometry">
            <mxPoint x="730" y="560" as="sourcePoint" />
            <mxPoint x="650" y="560" as="targetPoint" />
          </mxGeometry>
        </mxCell>
        <mxCell id="hLtvygojtWEa5uv9mund-89" value="&lt;font style=&quot;font-size: 17px;&quot;&gt;online super shop sequence diagram&lt;/font&gt;" style="text;html=1;align=center;verticalAlign=middle;resizable=0;points=[];autosize=1;strokeColor=none;fillColor=none;" vertex="1" parent="1">
          <mxGeometry x="140" y="38" width="300" height="30" as="geometry" />
        </mxCell>
      </root>
    </mxGraphModel>
  </diagram>
</mxfile>
